<svg fill="none" height="371" viewBox="0 0 470 371" width="470" xmlns="http://www.w3.org/2000/svg"><path d="m31.7478 322.12c-10.778-11.455-19.066-25.851-24.032-43.415-12.105-42.813-10.588-95.11 16.782-131.927 17.006-22.876 42.13-38.617 69.792-45.02 28.7682-6.6592 35.9772-32.1352 54.5192-52.1742 15.639-16.902 37.32-30.306 58.694-38.5 57.439-22.02 143.64-9.33102 176.925 48.443 8.722 15.139 11.618 33.749 21.849 48.0162 10.946 15.264 28.891 22.839 39.946 37.806 11.173 15.127 17.648 33.477 20.074 52.032 3.15 24.093-.175 48.633-6.027 72.215-28.213 113.687-182.26 81.511-269.56 85.365-26.004 1.148-52.051 4.026-77.999 1.968-30.0382-2.382-59.8982-12.42-80.9632-34.809z" fill="#32334c"/><path d="m233.93 370.808c118.049 0 213.747-9.957 213.747-22.24s-95.698-22.24-213.747-22.24c-118.05 0-213.7474 9.957-213.7474 22.24s95.6974 22.24 213.7474 22.24z" fill="#242537"/><path d="m267.76 218.854c.882 3.554.521 7.287.023 10.925-.77 5.665-1.866 11.336-4.058 16.624-2.723 6.564-7.278 12.825-13.004 17.099-1.537 1.149-3.067 1.937-4.617 2.484-1.286.455-2.577.74-3.906.93-2.785.398-5.709.365-8.925.541-15.224.826-29.836-1.686-42.894-10.018-4.035-2.571-7.88-5.694-10.209-9.879-1.277-2.289-2.021-4.954-2.018-7.566-.006-1.364.198-2.715.63-3.991.244-.742.572-1.452.983-2.133 3.353-5.547 10.747-6.929 17.227-6.904-8.405-1.377-16.307-5.666-22.036-11.971-3.244-3.57-5.877-8.14-5.853-12.894.003-.524.04-1.044.107-1.573.11-.829.34-1.64.67-2.417 1.753-4.214 6.374-7.371 10.655-5.918-3.914-5.065-7.835-10.128-11.756-15.191-2.766-3.585-5.588-7.242-7.103-11.517-1.266-3.577-1.492-7.71.006-11.138.285-.665.639-1.294 1.059-1.896.343-.486.736-.941 1.172-1.343 2.873-2.717 7.548-3.649 10.738-1.338-2.768-6.719-5.565-13.551-6.321-20.778-.748-7.23.805-15.037 5.796-20.326 1.25-1.327 2.749-2.44 4.382-3.292 1.176-.616 2.428-1.101 3.712-1.432 4.001-1.043 8.3-.602 11.669 1.783 4.096 2.912 6.076 7.92 7.749 12.659 2.334 6.613 4.497 13.281 6.487 19.996-.787-5.114 4.617-9.702 9.774-9.316.787.057 1.555.203 2.296.423 1.358.405 2.635 1.066 3.791 1.913 2.361 1.719 4.257 4.202 5.449 6.886 2.097 4.734 2.424 10.021 2.728 15.184.368 6.329.737 12.658 1.105 18.988.324-4.687 5.851-7.8 10.417-6.684.241.062.484.131.722.21 1.387.445 2.641 1.187 3.754 2.13 2.234 1.907 3.861 4.648 4.701 7.512 1.328 4.507 1.05 9.309.757 13.994-.517 8.357-1.034 16.715-1.551 25.072.857-2.829 3.93-4.465 6.91-4.36.717.015 1.42.14 2.092.374.582.205 1.133.47 1.66.783 2.55 1.569 4.297 4.402 5.03 7.365z" fill="#c3b7fc"/><path d="m236.96 249.226c2.897 5.671 5.924 11.283 9.143 16.76-1.286.455-2.577.74-3.906.93-.789-1.358-1.571-2.718-2.332-4.093-2.37-4.261-4.673-8.568-6.922-12.909-18.817 1.05-37.626-2.37-54.792-9.919-.006-1.364.198-2.715.63-3.991 16.354 7.361 34.203 10.828 52.207 10.097-4.98-9.828-9.663-19.825-14.109-29.923-16.772-1.416-33.02-6.16-47.777-14.076.003-.524.04-1.044.107-1.573.11-.829.34-1.64.67-2.417 13.967 7.647 29.336 12.46 45.24 14.025-4.629-10.693-9.006-21.492-13.205-32.3-.12-.297-.233-.596-.346-.895-15.509-4.204-28.433-13.643-39.887-24.594.285-.665.639-1.294 1.059-1.896.343-.486.736-.941 1.172-1.343 10.395 10.024 22.053 18.863 35.898 23.26-4.847-12.718-9.398-25.556-13.545-38.516-3.203-9.999-6.027-20.144-7.758-30.478 1.176-.616 2.428-1.101 3.712-1.432 2.042 12.623 5.788 24.918 9.831 37.068 3.804 11.41 7.87 22.743 12.173 33.975 3.961-2.691 6.103-6.891 7.797-11.339 1.922-5.062 3.515-10.304 4.928-15.521 1.664-6.141 2.884-12.368 3.246-18.637 1.358.405 2.635 1.066 3.791 1.913-.565 6.785-2.048 13.514-3.949 20.091-2.715 9.384-5.333 21.813-14.377 27.196 4.677 12.036 9.63 23.967 14.879 35.771 14.098-12.279 22.591-30.021 23.867-48.474 1.387.445 2.641 1.187 3.754 2.13-1.811 19.182-11.132 37.377-25.97 50.026 1.182 2.631 2.37 5.251 3.579 7.865 3.038 6.566 6.143 13.16 9.404 19.679 11.383-9.122 20.902-21.237 23.804-35.353.717.015 1.42.14 2.092.374.582.205 1.133.47 1.66.783-3.243 15.085-13.524 28.034-25.768 37.736z" fill="#dfdbfc"/><path d="m355.075 246.738c-.811 3.267-.479 6.699-.021 10.043.708 5.208 1.715 10.422 3.731 15.283 2.503 6.034 6.69 11.79 11.955 15.719 1.413 1.056 2.819 1.78 4.245 2.284 1.182.418 2.369.68 3.591.855 2.56.366 5.248.336 8.205.498 13.995.759 27.429-1.55 39.433-9.21 3.71-2.363 7.244-5.235 9.385-9.082 1.174-2.104 1.858-4.555 1.855-6.955.005-1.255-.182-2.496-.579-3.669-.225-.681-.526-1.335-.903-1.96-3.082-5.099-9.88-6.37-15.837-6.347 7.727-1.266 14.991-5.208 20.257-11.005 2.982-3.282 5.403-7.483 5.381-11.853-.003-.482-.037-.96-.099-1.446-.101-.762-.312-1.507-.616-2.222-1.611-3.874-5.86-6.776-9.795-5.44 3.598-4.656 7.202-9.311 10.807-13.965 2.543-3.296 5.137-6.658 6.53-10.588 1.164-3.288 1.372-7.088-.006-10.24-.262-.611-.587-1.189-.974-1.742-.315-.447-.677-.865-1.077-1.234-2.641-2.498-6.939-3.355-9.872-1.23 2.545-6.177 5.116-12.457 5.811-19.102.688-6.646-.74-13.824-5.328-18.686-1.149-1.22-2.527-2.243-4.028-3.027-1.081-.566-2.232-1.012-3.413-1.317-3.678-.959-7.63-.553-10.728 1.639-3.766 2.677-5.586 7.281-7.124 11.638-2.145 6.079-4.134 12.209-5.963 18.383.724-4.702-4.245-8.919-8.985-8.564-.724.053-1.429.187-2.111.389-1.248.373-2.422.98-3.485 1.759-2.171 1.58-3.914 3.862-5.009 6.331-1.928 4.352-2.229 9.212-2.508 13.959-.339 5.818-.677 11.637-1.016 17.456-.298-4.308-5.379-7.171-9.576-6.145-.221.057-.445.12-.664.193-1.275.409-2.428 1.092-3.451 1.958-2.054 1.753-3.55 4.274-4.322 6.906-1.221 4.143-.965 8.558-.696 12.865.475 7.683.951 15.366 1.426 23.049-.788-2.601-3.613-4.105-6.352-4.008-.659.014-1.305.129-1.923.344-.535.189-1.042.432-1.526.72-2.346 1.437-3.952 4.042-4.625 6.766z" fill="#e08675"/><path d="m383.389 274.659c-2.664 5.213-5.446 10.373-8.405 15.408 1.182.418 2.369.68 3.591.855.725-1.249 1.444-2.499 2.144-3.763 2.179-3.917 4.296-7.877 6.363-11.868 17.299.965 34.589-2.179 50.371-9.119.005-1.255-.182-2.496-.579-3.669-15.034 6.767-31.443 9.954-47.994 9.282 4.578-9.034 8.884-18.225 12.971-27.508 15.419-1.302 30.355-5.663 43.921-12.94-.003-.482-.037-.96-.099-1.446-.101-.762-.312-1.507-.616-2.222-12.84 7.03-26.969 11.455-41.589 12.894 4.255-9.83 8.279-19.758 12.14-29.694.11-.273.214-.548.318-.823 14.258-3.865 26.138-12.542 36.668-22.61-.262-.611-.587-1.189-.974-1.742-.315-.447-.677-.865-1.077-1.234-9.556 9.215-20.274 17.341-33.001 21.383 4.456-11.692 8.639-23.494 12.452-35.408 2.944-9.192 5.541-18.519 7.132-28.018-1.081-.566-2.232-1.012-3.413-1.317-1.878 11.604-5.321 22.907-9.037 34.077-3.497 10.489-7.235 20.907-11.191 31.233-3.642-2.474-5.611-6.335-7.168-10.424-1.767-4.653-3.231-9.473-4.531-14.269-1.53-5.645-2.651-11.37-2.984-17.134-1.248.373-2.422.98-3.485 1.759.52 6.238 1.883 12.424 3.63 18.47 2.496 8.627 4.903 20.053 13.216 25.001-4.299 11.065-8.853 22.033-13.678 32.884-12.96-11.288-20.768-27.598-21.941-44.562-1.275.409-2.428 1.092-3.451 1.958 1.665 17.634 10.233 34.361 23.874 45.989-1.087 2.418-2.179 4.827-3.291 7.23-2.793 6.036-5.647 12.098-8.645 18.091-10.464-8.386-19.215-19.523-21.883-32.5-.659.014-1.305.129-1.923.344-.535.189-1.042.432-1.526.72 2.982 13.869 12.434 25.773 23.69 34.692z" fill="#d7594a"/><g fill="#ecbf4c"><path d="m457.731 251.622c-3.086 1.613-5.675 4.179-8.229 6.516-2.633 2.409-5.201 4.889-7.706 7.43-5.014 5.086-9.761 10.429-14.3 15.942-9.105 11.061-17.372 22.782-25.216 34.762-4.409 6.734-8.687 13.553-12.921 20.399-.813 1.315 1.258 2.536 2.07 1.22 14.845-24.062 30.358-47.932 49.875-68.526 2.749-2.901 5.575-5.729 8.483-8.47 2.884-2.718 6.205-5.187 8.674-8.292.414-.519-.065-1.328-.73-.981z"/><path d="m468.661 245.413c-1.443-2.095-4.981-1.637-7.17-1.183-5.165 1.071-9.671 4.565-13.358 8.4-2.704 2.814-5.126 5.914-7.268 9.193-2.117 3.239-4.13 6.79-5.029 10.578-.116.49.274.752.647.688.255.222.607.334 1.025.227 5.746-1.482 11.288-3.917 16.36-7.192 2.55-1.646 4.965-3.51 7.242-5.547 2.37-2.12 4.733-4.432 6.4-7.192 1.318-2.183 2.729-5.681 1.151-7.972z"/><path d="m432.395 273.566c1.062-3.143 2.019-6.309 2.802-9.503.773-3.15 1.389-6.328 1.8-9.494.359-2.769.483-5.708-.861-7.896-1.254-2.04-3.514-2.827-5.941-1.897-2.588.992-4.549 3.475-5.955 6.015-2.886 5.21-3.755 11.137-3.403 16.607.197 3.061.775 6.047 1.806 8.76.506 1.334 1.122 2.583 1.876 3.738.657 1.007 1.372 1.783 2.22 2.511.114.163.266.29.441.365.043.034.084.069.127.103.166.131.347.073.48-.064.205-.058.416-.187.615-.41 2.136-2.384 3-5.896 3.993-8.835z"/><path d="m418.932 287.387c-.019-3.221-.143-6.43-.434-9.609-.287-3.135-.727-6.248-1.352-9.284-.547-2.655-1.363-5.393-3.289-6.975-1.796-1.476-4.12-1.483-6.054.139-2.061 1.729-3.076 4.629-3.563 7.406-1 5.695.077 11.411 2.131 16.321 1.149 2.747 2.625 5.305 4.429 7.469.887 1.064 1.848 2.016 2.905 2.837.921.716 1.823 1.203 2.832 1.603.156.114.336.182.521.196.05.018.098.037.149.054.194.067.341-.043.42-.211.17-.118.322-.303.435-.571 1.207-2.866.889-6.363.87-9.375z"/><path d="m406.837 303.649c-.351-3.202-.804-6.381-1.421-9.514-.608-3.089-1.366-6.14-2.301-9.096-.817-2.585-1.911-5.224-3.989-6.6-1.939-1.283-4.251-1.051-6.007.761-1.873 1.932-2.583 4.921-2.782 7.733-.409 5.768 1.251 11.343 3.799 16.015 1.426 2.614 3.157 5.007 5.175 6.974.991.967 2.045 1.815 3.181 2.523.99.617 1.937 1.009 2.983 1.303.167.097.353.147.538.141.052.013.102.026.154.038.2.047.335-.078.397-.253.157-.135.289-.335.374-.613.904-2.972.227-6.418-.101-9.412z"/><path d="m395.251 319.616c-.535-3.144-1.173-6.26-1.975-9.322-.791-3.019-1.731-5.993-2.845-8.864-.974-2.51-2.233-5.06-4.421-6.31-2.042-1.167-4.378-.818-6.061 1.063-1.795 2.005-2.349 4.993-2.395 7.781-.093 5.717 1.904 11.137 4.754 15.618 1.595 2.508 3.487 4.781 5.647 6.619 1.061.904 2.179 1.686 3.373 2.327 1.041.558 2.025.896 3.103 1.132.175.087.367.126.554.112.053.01.105.021.159.03.206.036.336-.094.389-.271.152-.141.275-.346.346-.625.752-2.983-.128-6.35-.628-9.29z"/><path d="m404.26 326.024c3.17-.354 6.34-.602 9.504-.677 3.12-.074 6.237.008 9.304.286 2.682.243 5.48.748 7.287 2.506 1.686 1.64 1.995 3.982.653 6.119-1.431 2.279-4.15 3.637-6.816 4.451-5.469 1.669-11.229 1.246-16.324-.255-2.851-.84-5.558-2.031-7.921-3.599-1.162-.771-2.223-1.629-3.169-2.599-.824-.846-1.42-1.699-1.945-2.669-.132-.144-.223-.318-.26-.502-.024-.048-.049-.095-.073-.144-.092-.188-.002-.349.153-.448.094-.185.256-.36.505-.505 2.659-1.548 6.139-1.633 9.102-1.964z"/><path d="m415.364 309.845c3.207-.385 6.417-.659 9.624-.755 3.163-.094 6.327-.026 9.444.246 2.726.238 5.576.746 7.45 2.56 1.748 1.692 2.118 4.121.807 6.346-1.398 2.372-4.123 3.797-6.809 4.656-5.508 1.762-11.361 1.355-16.564-.174-2.911-.856-5.686-2.077-8.12-3.69-1.197-.793-2.293-1.678-3.276-2.68-.856-.873-1.481-1.755-2.036-2.759-.137-.149-.234-.329-.276-.519-.026-.05-.052-.098-.077-.149-.097-.194-.011-.362.144-.466.091-.193.251-.375.5-.527 2.663-1.622 6.191-1.729 9.189-2.089z"/><path d="m467.08 280.004c.208-2.417-1.059-4.881-3.623-6.494-4.512-2.838-10.73-1.613-15.618-.54-5.458 1.198-10.719 3.301-15.483 6.222-1.16.711-2.309 1.389-3.514 2.014-.365.189-.764-.068-1.077.325-2.159 2.723 8.596 5.813 10.46 6.34 5.43 1.538 11.411 2.337 16.948 1.135 4.754-1.032 11.412-3.238 11.907-9.002z"/><path d="m454.139 302.162c.679-2.235-.023-4.827-2.119-6.89-3.689-3.631-9.8-3.791-14.626-3.813-5.388-.025-10.772.845-15.851 2.592-1.236.425-2.457.822-3.718 1.156-.382.101-.708-.226-1.081.078-2.581 2.111 6.948 7.3 8.6 8.191 4.816 2.599 10.298 4.617 15.762 4.656 4.691.033 11.413-.639 13.033-5.97z"/><path d="m318.911 78.1547-98.864 103.9423 68.862 65.498 98.864-103.943z"/></g><path d="m288.902 247.606 10.456-89.043 88.409-14.894z" fill="#e5b340"/><path d="m220.043 182.108 85.983-9.14c4.396-.467 7.805-4.051 8.052-8.465l4.831-86.3321z" fill="#dfa331"/><path d="m397.324 339.994h-83.999c-1.7 0-3.078-1.378-3.078-3.078v-137.631c0-1.7 1.378-3.078 3.078-3.078h83.999c1.7 0 3.078 1.378 3.078 3.078v137.631c0 1.7-1.378 3.078-3.078 3.078z" fill="#c3b7fc"/><path d="m394.809 203.153h-78.968v116.44h78.968z" fill="#363271"/><path d="m394.809 319.594h-78.968v-116.441z" fill="#fff" opacity=".08"/><path d="m363.057 329.629c0 4.27-3.462 7.732-7.732 7.732s-7.732-3.462-7.732-7.732c0-4.271 3.462-7.732 7.732-7.732s7.732 3.461 7.732 7.732z" fill="#363271"/><path d="m385.064 154.782c-22.393 0-40.546 13.615-40.546 30.41 0 8.94 5.144 16.978 13.332 22.542.159 2.531.532 5.108.631 6.327.275 3.389.794 6.758 1.555 10.073.245 1.068 1.66 1.294 2.227.356 2.322-3.838 4.863-7.543 7.596-11.101 4.696 1.426 9.828 2.213 15.206 2.213 22.393 0 40.546-13.615 40.546-30.41-.001-16.795-18.154-30.41-40.547-30.41z" fill="#fff"/><path d="m372.258 184.658c0 3.732-3.026 6.758-6.758 6.758s-6.758-3.026-6.758-6.758 3.025-6.758 6.758-6.758c3.733.001 6.758 3.026 6.758 6.758z" fill="#c3b7fc"/><path d="m393.599 184.658c0 3.732-3.026 6.758-6.758 6.758s-6.758-3.026-6.758-6.758 3.026-6.758 6.758-6.758c3.732.001 6.758 3.026 6.758 6.758z" fill="#c3b7fc"/><path d="m414.939 184.658c0 3.732-3.025 6.758-6.758 6.758-3.732 0-6.758-3.026-6.758-6.758s3.026-6.758 6.758-6.758c3.732.001 6.758 3.026 6.758 6.758z" fill="#c3b7fc"/><path d="m353.36 275.475c-.48 1-.98 2-1.49 3-2.64 5.12-8.93 7.12-14.04 4.46l-27.83-14.48-.3-.16c-5.21-2.71-7.13-9.21-4.23-14.33l1.31-2.32 2.04-3.6c.56-.99.94-2.08 1.08-3.21.53-4.21-.08-13.59-15.78-14.44h-76.85c-14.81.8-16.19 9.19-15.86 13.68.12 1.5.58 2.95 1.32 4.25l2 3.54 1.2 2.1c2.89 5.12.97 11.62-4.24 14.33l-.13.07-28 14.57c-5.1 2.66-11.4.66-14.03-4.46-.48-.93-.94-1.85-1.39-2.77-5.39-11.11-8.37-21.79-3.81-34.28 2.93-7.98 9.23-14.29 17.17-17.32 30.31-11.57 59.11-15.18 84.2-14.79 25.08-.39 53.88 3.22 84.19 14.79 7.95 3.03 14.24 9.34 17.17 17.32 4.53 12.4 1.63 23.03-3.7 34.05z" fill="#dd6e5c"/><path d="m201.688 268.298-28.126 14.639c-5.105 2.657-11.401.659-14.036-4.463-.477-.928-.939-1.85-1.383-2.772l46.592-23.84 1.191 2.102c2.898 5.118.977 11.622-4.238 14.334z" fill="#e08675"/><path d="m353.359 275.478c-.478.993-.977 1.992-1.493 2.997-2.635 5.121-8.931 7.119-14.036 4.463l-28.126-14.639c-5.215-2.712-7.136-9.216-4.238-14.332l1.317-2.322z" fill="#e08675"/><path d="m316.94 247.285c-.94 4.4-3.84 8.09-5.7 12.19-1.25 2.77-1.92 6.12-1.24 8.98l-.3-.16c-5.21-2.71-7.13-9.21-4.23-14.33l1.31-2.32 2.04-3.6c.56-.99.94-2.08 1.08-3.21.53-4.21-.08-13.59-15.78-14.44h-76.85c-14.81.8-16.19 9.19-15.86 13.68.12 1.5.58 2.95 1.32 4.25l2 3.54 1.2 2.1c2.89 5.12.97 11.62-4.24 14.33l-.13.07c.36-.7.61-1.46.73-2.28.51-3.29-1.18-6.48-2.74-9.43-3.51-6.66-6.64-14.58-3.68-21.5 2.34-5.46 8.02-8.83 13.78-10.31 5.44-1.4 11.12-1.45 16.74-1.49 17.57-.14 35.15-.27 52.72-.4 8.67-.06 17.67-.05 25.51 3.64 7.85 3.69 14.14 12.21 12.32 20.69z" fill="#c1463d" opacity=".3"/><path d="m334.19 312.955v23.773c0 2.07-1.674 3.744-3.743 3.744h-150.052c-2.069 0-3.744-1.674-3.744-3.744v-23.773c0-1.29.67-2.486 1.767-3.167 31.81-19.728 38.979-74.263 40.28-87.634.165-1.696 1.586-2.992 3.288-2.992h7.69c3.892 0 7.048 3.156 7.048 7.048v6.774c0 2.07 1.674 3.744 3.738 3.744h29.916c2.064 0 3.738-1.674 3.738-3.744v-6.774c0-3.892 3.156-7.048 7.048-7.048h7.691c1.701 0 3.123 1.295 3.288 2.992 1.301 13.372 8.47 67.906 40.28 87.634 1.097.681 1.767 1.877 1.767 3.167z" fill="#c64b42"/><path d="m254.597 315.222c18.493 0 33.484-14.991 33.484-33.484s-14.991-33.484-33.484-33.484c-18.492 0-33.484 14.991-33.484 33.484s14.992 33.484 33.484 33.484z" fill="#fff"/><path d="m267.769 281.735c0 4.84-2.6 9.06-6.48 11.35-1.96 1.16-4.25 1.83-6.69 1.83-7.28 0-13.18-5.9-13.18-13.18 0-5.28 3.11-9.84 7.6-11.93 1.69-.8 3.59-1.24 5.58-1.24 7.27 0 13.17 5.9 13.17 13.17z" fill="#e4e4e4"/><path d="m238.13 281.464c0 3.486-2.826 6.312-6.313 6.312-3.486 0-6.313-2.826-6.313-6.312s2.826-6.313 6.313-6.313c3.486 0 6.313 2.827 6.313 6.313z" fill="#e4e4e4"/><path d="m283.689 281.464c0 3.486-2.826 6.312-6.313 6.312-3.486 0-6.313-2.826-6.313-6.312s2.826-6.313 6.313-6.313c3.486 0 6.313 2.827 6.313 6.313z" fill="#e4e4e4"/><path d="m254.597 297.931c3.486 0 6.313 2.826 6.313 6.313 0 3.486-2.826 6.313-6.313 6.313-3.486 0-6.313-2.826-6.313-6.313.001-3.486 2.827-6.313 6.313-6.313z" fill="#e4e4e4"/><path d="m254.597 252.371c3.486 0 6.313 2.826 6.313 6.313 0 3.486-2.826 6.313-6.313 6.313-3.486 0-6.313-2.826-6.313-6.313.001-3.486 2.827-6.313 6.313-6.313z" fill="#e4e4e4"/><path d="m266.241 293.108c2.465-2.465 6.462-2.465 8.927 0s2.465 6.462 0 8.927-6.462 2.465-8.927 0-2.465-6.462 0-8.927z" fill="#e4e4e4"/><path d="m234.026 260.892c2.465-2.465 6.462-2.465 8.927 0s2.465 6.462 0 8.927-6.462 2.465-8.927 0c-2.466-2.465-2.466-6.461 0-8.927z" fill="#e4e4e4"/><path d="m266.24 269.819c-2.465-2.465-2.465-6.462 0-8.927s6.462-2.465 8.927 0 2.465 6.462 0 8.927c-2.465 2.466-6.461 2.466-8.927 0z" fill="#e4e4e4"/><path d="m234.026 302.035c-2.465-2.465-2.465-6.462 0-8.927s6.462-2.465 8.927 0 2.465 6.462 0 8.927-6.462 2.465-8.927 0z" fill="#e4e4e4"/><path d="m334.19 325.651v11.077c0 2.07-1.674 3.744-3.743 3.744h-150.052c-2.069 0-3.744-1.674-3.744-3.744v-11.077z" fill="#dd6e5c"/><path d="m261.289 293.085c-1.96 1.16-4.25 1.83-6.69 1.83-7.28 0-13.18-5.9-13.18-13.18 0-5.28 3.11-9.84 7.6-11.93z" fill="#fff" opacity=".41"/><path d="m125.639 150.024c14.605 0 26.444 8.88 26.444 19.833 0 5.83-3.355 11.073-8.695 14.702-.104 1.651-.347 3.332-.411 4.126-.179 2.21-.518 4.408-1.014 6.57-.16.696-1.082.844-1.452.232-1.514-2.503-3.172-4.92-4.954-7.24-3.063.93-6.41 1.443-9.917 1.443-14.605 0-26.4437-8.88-26.4437-19.833-.001-10.954 11.8377-19.833 26.4427-19.833z" fill="#fff"/><path d="m133.99 169.509c0 2.434 1.973 4.407 4.407 4.407s4.407-1.973 4.407-4.407-1.973-4.408-4.407-4.408c-2.434.001-4.407 1.974-4.407 4.408z" fill="#c3b7fc"/><path d="m120.072 169.509c0 2.434 1.973 4.407 4.407 4.407s4.408-1.973 4.408-4.407-1.973-4.408-4.408-4.408c-2.434.001-4.407 1.974-4.407 4.408z" fill="#c3b7fc"/><path d="m106.154 169.509c0 2.434 1.973 4.407 4.407 4.407s4.407-1.973 4.407-4.407-1.973-4.408-4.407-4.408-4.407 1.974-4.407 4.408z" fill="#c3b7fc"/><path d="m26.234 243.374c3.46 1.808 6.363 4.685 9.226 7.305 2.952 2.701 5.831 5.482 8.64 8.331 5.622 5.702 10.944 11.693 16.033 17.875 10.209 12.401 19.478 25.544 28.273 38.975 4.944 7.551 9.74 15.196 14.487 22.872.912 1.475-1.41 2.844-2.321 1.368-16.644-26.979-34.038-53.742-55.92-76.832-3.082-3.253-6.251-6.423-9.512-9.497-3.233-3.047-6.957-5.816-9.725-9.297-.464-.583.073-1.49.819-1.1z" fill="#e08675"/><path d="m13.9778 236.412c1.618-2.349 5.585-1.835 8.04-1.326 5.792 1.201 10.843 5.118 14.977 9.418 3.032 3.155 5.747 6.631 8.149 10.307 2.374 3.631 4.63 7.613 5.638 11.86.13.549-.307.843-.725.771-.286.249-.68.375-1.149.254-6.443-1.662-12.656-4.392-18.343-8.064-2.859-1.846-5.567-3.935-8.12-6.22-2.657-2.377-5.306-4.969-7.176-8.064-1.477-2.446-3.059-6.368-1.291-8.936z" fill="#e08675"/><path d="m54.6404 267.977c-1.191-3.524-2.264-7.074-3.142-10.654-.867-3.531-1.558-7.095-2.018-10.645-.402-3.104-.541-6.399.966-8.852 1.406-2.288 3.94-3.17 6.661-2.128 2.902 1.112 5.1 3.896 6.677 6.744 3.236 5.841 4.21 12.488 3.816 18.621-.221 3.432-.869 6.779-2.024 9.821-.568 1.495-1.259 2.897-2.104 4.192-.737 1.129-1.538 1.998-2.489 2.815-.128.183-.299.326-.494.41-.048.038-.094.077-.142.115-.187.146-.389.082-.539-.072-.23-.065-.466-.21-.69-.46-2.396-2.674-3.365-6.612-4.478-9.907z" fill="#e08675"/><path d="m69.7341 283.473c.022-3.612.16-7.209.487-10.774.322-3.516.815-7.005 1.516-10.41.613-2.977 1.528-6.046 3.687-7.821 2.014-1.655 4.62-1.662 6.788.156 2.312 1.939 3.448 5.19 3.995 8.303 1.122 6.386-.086 12.795-2.389 18.299-1.288 3.08-2.943 5.948-4.966 8.375-.994 1.193-2.072 2.26-3.257 3.181-1.033.803-2.044 1.349-3.176 1.797-.175.127-.377.204-.583.219-.056.02-.111.041-.167.061-.218.076-.383-.048-.471-.237-.191-.132-.361-.34-.488-.641-1.354-3.21-.996-7.131-.976-10.508z" fill="#e08675"/><path d="m83.297 301.706c.394-3.591.902-7.154 1.593-10.667.682-3.464 1.532-6.884 2.579-10.199.916-2.898 2.143-5.857 4.473-7.399 2.174-1.439 4.767-1.178 6.736.854 2.1 2.167 2.896 5.517 3.119 8.671.458 6.467-1.403 12.718-4.26 17.956-1.599 2.931-3.54 5.613-5.802 7.819-1.112 1.084-2.293 2.035-3.567 2.829-1.11.692-2.173 1.131-3.344 1.461-.187.109-.396.164-.603.158-.058.014-.114.03-.173.043-.224.053-.376-.087-.445-.284-.176-.151-.324-.376-.42-.688-1.013-3.333-.254-7.196.114-10.554z" fill="#e08675"/><path d="m96.2869 319.608c.6-3.525 1.315-7.018 2.214-10.451.886-3.385 1.9401-6.719 3.1901-9.938 1.092-2.814 2.503-5.673 4.957-7.076 2.289-1.309 4.909-.917 6.796 1.192 2.012 2.248 2.634 5.599 2.685 8.724.105 6.41-2.135 12.487-5.33 17.512-1.788 2.812-3.91 5.36-6.331 7.421-1.19 1.013-2.444 1.891-3.782 2.609-1.1671.626-2.2701 1.005-3.4791 1.269-.196.098-.412.142-.621.125-.06.011-.118.023-.178.034-.231.04-.377-.106-.436-.303-.17-.159-.309-.388-.388-.701-.844-3.344.142-7.12.703-10.417z" fill="#e08675"/><path d="m86.186 326.794c-3.554-.397-7.109-.675-10.656-.759-3.498-.083-6.994.009-10.432.321-3.007.273-6.144.839-8.17 2.81-1.89 1.838-2.237 4.464-.732 6.86 1.605 2.555 4.653 4.078 7.643 4.991 6.132 1.871 12.59 1.397 18.303-.285 3.197-.942 6.232-2.277 8.882-4.035 1.302-.864 2.492-1.826 3.552-2.914.924-.948 1.593-1.904 2.181-2.993.148-.162.25-.357.292-.563.027-.054.055-.107.081-.162.103-.211.002-.391-.171-.503-.105-.207-.287-.404-.566-.566-2.983-1.736-6.884-1.831-10.207-2.202z" fill="#e08675"/><path d="m73.7359 308.653c-3.596-.431-7.195-.739-10.791-.846-3.547-.106-7.094-.03-10.589.275-3.056.266-6.252.837-8.353 2.871-1.96 1.897-2.375 4.62-.905 7.115 1.567 2.66 4.623 4.258 7.634 5.221 6.175 1.976 12.738 1.519 18.572-.196 3.264-.959 6.375-2.328 9.104-4.138 1.341-.889 2.571-1.881 3.672-3.004.96-.979 1.66-1.967 2.283-3.094.154-.167.262-.369.309-.582.029-.056.058-.11.087-.167.109-.218.012-.406-.162-.522-.102-.216-.282-.421-.561-.591-2.983-1.819-6.938-1.939-10.3-2.342z" fill="#e08675"/><path d="m15.7522 275.196c-.233-2.71 1.187-5.473 4.062-7.281 5.058-3.182 12.03-1.809 17.511-.605 6.119 1.344 12.018 3.701 17.36 6.977 1.3.797 2.59 1.557 3.94 2.258.409.212.857-.076 1.208.364 2.42 3.053-9.639 6.517-11.727 7.109-6.089 1.724-12.794 2.62-19.003 1.273-5.332-1.158-12.796-3.632-13.351-10.095z" fill="#e08675"/><path d="m30.2622 300.039c-.762-2.506.026-5.411 2.376-7.725 4.136-4.071 10.988-4.25 16.399-4.275 6.041-.027 12.078.948 17.772 2.906 1.386.477 2.754.921 4.169 1.296.428.113.793-.253 1.212.088 2.894 2.367-7.79 8.184-9.643 9.184-5.399 2.914-11.546 5.177-17.673 5.22-5.26.037-12.796-.716-14.612-6.694z" fill="#e08675"/><path d="m72.688 180.077c2.569 2.484 4.372 5.762 6.207 8.805 1.892 3.136 3.699 6.324 5.426 9.553 3.458 6.463 6.578 13.102 9.443 19.848 5.748 13.533 10.48 27.474 14.72 41.546 2.383 7.91 4.613 15.866 6.791 23.835.419 1.532-1.975 2.131-2.392.599-7.62-28-15.954-56.004-29.181-81.947-1.863-3.654-3.823-7.259-5.889-10.803-2.049-3.513-4.6-6.909-6.129-10.682-.256-.632.45-1.289 1.004-.754z" fill="#dfa331"/><path d="m63.7322 170.789c2.029-1.643 5.379-.164 7.402.919 4.773 2.556 8.193 7.303 10.708 12.15 1.844 3.555 3.327 7.311 4.483 11.161 1.143 3.803 2.091 7.884 1.876 11.874-.028.516-.488.66-.836.489-.315.145-.695.153-1.075-.075-5.226-3.129-9.973-7.136-14.014-11.834-2.032-2.362-3.867-4.898-5.517-7.565-1.717-2.776-3.371-5.738-4.21-8.939-.663-2.531-1.035-6.384 1.183-8.18z" fill="#dfa331"/><path d="m91.2505 209.04c-.132-3.403-.154-6.797.003-10.168.155-3.325.471-6.633.987-9.869.451-2.83 1.1841-5.759 3.1421-7.522 1.827-1.644 4.2809-1.761 6.4004-.141 2.259 1.728 3.467 4.742 4.114 7.652 1.327 5.967.46 12.054-1.476 17.336-1.083 2.956-2.521 5.727-4.323 8.098-.8865 1.165-1.8565 2.216-2.9335 3.134-.939.8-1.868 1.357-2.915 1.827-.16.127-.347.208-.54.232-.052.021-.102.043-.155.064-.202.08-.362-.029-.454-.203-.185-.116-.355-.305-.487-.583-1.41-2.968-1.24-6.676-1.363-9.857z" fill="#dfa331"/><path d="m100.485 226.556c.955-3.165 2.009-6.288 3.22-9.333 1.194-3.003 2.531-5.939 4.029-8.746 1.31-2.455 2.909-4.912 5.264-5.91 2.197-.931 4.487-.262 5.919 1.896 1.527 2.301 1.682 5.45 1.356 8.325-.67 5.897-3.392 11.21-6.84 15.446-1.93 2.37-4.126 4.459-6.531 6.066-1.182.79-2.404 1.447-3.684 1.949-1.115.437-2.144.654-3.254.754-.187.066-.384.082-.569.042-.054.003-.107.007-.162.01-.211.01-.323-.142-.352-.33-.133-.165-.229-.392-.262-.689-.357-3.17.973-6.52 1.866-9.48z" fill="#dfa331"/><path d="m107.666 246.079c1.276-3.05 2.646-6.047 4.164-8.952 1.497-2.864 3.129-5.647 4.908-8.285 1.555-2.307 3.399-4.587 5.845-5.337 2.281-.7 4.49.201 5.692 2.495 1.282 2.446 1.112 5.595.491 8.421-1.274 5.797-4.528 10.802-8.394 14.66-2.163 2.159-4.563 4.011-7.12 5.361-1.257.664-2.541 1.192-3.865 1.559-1.154.32-2.2.43-3.315.416-.193.047-.391.042-.57-.017-.055-.003-.108-.004-.163-.007-.211-.012-.307-.174-.317-.365-.115-.178-.188-.414-.19-.712-.027-3.19 1.641-6.385 2.834-9.237z" fill="#dfa331"/><path d="m114.432 265.163c1.441-2.94 2.974-5.821 4.653-8.602 1.656-2.742 3.445-5.396 5.376-7.898 1.689-2.188 3.668-4.332 6.186-4.927 2.349-.556 4.547.467 5.657 2.807 1.184 2.495.862 5.598.096 8.355-1.57 5.655-5.111 10.409-9.218 13.993-2.298 2.005-4.822 3.692-7.482 4.874-1.307.581-2.635 1.027-3.997 1.311-1.186.247-2.253.293-3.383.213-.198.035-.398.018-.578-.051-.055-.006-.109-.01-.165-.017-.213-.024-.303-.19-.304-.379-.109-.183-.171-.42-.159-.716.126-3.156 1.971-6.215 3.318-8.963z" fill="#dfa331"/><path d="m103.701 268.853c-3.017-1.27-6.066-2.435-9.159-3.428-3.05-.98-6.142-1.805-9.242-2.422-2.71-.54-5.611-.856-7.901.349-2.136 1.124-3.121 3.34-2.421 5.833.747 2.659 3.028 4.786 5.416 6.362 4.898 3.232 10.691 4.49 16.143 4.493 3.05.002 6.061-.384 8.843-1.24 1.367-.421 2.661-.957 3.874-1.638 1.057-.593 1.892-1.259 2.691-2.062.172-.104.312-.248.402-.418.038-.041.076-.079.113-.121.145-.158.104-.343-.02-.486-.038-.21-.148-.429-.35-.644-2.167-2.297-5.568-3.391-8.389-4.578z" fill="#dfa331"/><path d="m97.4728 249.7c-3.045-1.311-6.125-2.513-9.254-3.54-3.086-1.012-6.221-1.865-9.368-2.503-2.752-.558-5.705-.886-8.078.355-2.213 1.158-3.282 3.441-2.638 6.012.687 2.742 2.955 4.936 5.349 6.562 4.91 3.335 10.789 4.635 16.355 4.642 3.115.004 6.2-.392 9.065-1.273 1.4082-.433 2.7452-.985 4.0032-1.686 1.096-.611 1.968-1.297 2.806-2.124.179-.107.326-.256.423-.431.04-.042.079-.082.119-.124.152-.163.116-.353-.007-.501-.033-.216-.138-.442-.339-.664-2.148-2.369-5.589-3.5-8.4362-4.725z" fill="#dfa331"/><path d="m55.2376 205.297c.498-2.44 2.46-4.497 5.453-5.34 5.266-1.483 11.031 1.53 15.53 4.007 5.024 2.766 9.592 6.364 13.433 10.624.935 1.037 1.87 2.038 2.874 3.003.304.292.772.155.966.633 1.334 3.308-10.151 3.224-12.138 3.202-5.792-.064-11.911-1.016-17.013-3.808-4.381-2.396-10.293-6.502-9.105-12.321z" fill="#dfa331"/><path d="m61.5363 230.87c-.019-2.398 1.425-4.744 4.088-6.166 4.686-2.502 10.748-.884 15.505.497 5.311 1.542 10.358 3.962 14.85 7.158 1.093.778 2.179 1.522 3.324 2.218.347.211.7617-.017 1.0417.391 1.927 2.828-8.9607 5.166-10.8457 5.564-5.495 1.159-11.479 1.553-16.868.002-4.628-1.331-11.049-3.946-11.095-9.664z" fill="#dfa331"/><path d="m370.747 336.921c-1.14 1.664-2.835 2.85-4.56 3.882-6.64 4.006-13.912 6.64-21.431 8.212-.647.154-1.309.293-1.972.401-2.311.446-4.653.785-6.995 1.032-.57.077-1.156.123-1.726.169-1.325.123-2.635.231-3.959.293-.524.031-1.033.047-1.541.062-2.465.093-4.93.108-7.38.046-.432 0-.848-.015-1.263-.03-.108 0-.201 0-.308-.016-1.279-.031-2.573-.093-3.898-.185-.601-.015-1.202-.061-1.818-.107-1.911-.138-3.852-.308-5.808-.539-1.448-.169-2.912-.385-4.36-.631-1.233-.185-2.465-.417-3.682-.694-10.075-2.111-19.658-6.193-26.021-14.082-1.263-1.556-2.419-3.99-2.342-5.793.015-.601.185-1.14.539-1.54.554-.663 1.602-.986 3.312-.74 7.719 1.14 14.975 5.022 21.954 8.303.909.416 1.726-.724 1.017-1.432-6.871-6.933-12.833-14.636-14.651-24.219-.139-.709-.231-1.479-.108-2.188.093-.555.324-1.078.801-1.525.092-.062.185-.139.277-.216.662-.493 1.494-.678 2.311-.601 1.726.139 3.112 1.217 4.391 2.326 5.793 5.039 10.522 12.002 15.021 18.565.647.94 2.126.308 1.864-.801-1.556-7.056-2.974-14.636-3.636-21.507-.37-3.821-.385-8.057 2.018-11.046.108-.138.231-.277.354-.385.216-.2.462-.37.74-.416.262-.047.524 0 .77.108.308.139.601.354.863.57 3.405 2.927 5.5 7.364 6.809 11.662 1.834 6.04 4.345 13.034 5.716 19.612.092.447.77.385.77-.077.216-10.276 2.049-20.968 7.395-29.534.709-1.125 1.895-1.895 3.22-1.957.262-.016.508 0 .74.046.57.093 1.048.323 1.448.678 1.449 1.202 1.91 3.744 1.926 5.824.077 7.996-.585 18.133-1.957 26.699-.138.863 1.017 1.248 1.433.493 4.114-7.718 9.105-16.439 16.069-20.49 1.957-1.14 4.375-2.08 6.393-.447.247.2.462.431.647.678.37.462.632 1.001.786 1.572.015.015.031.046.031.062.647 2.373-.185 4.668-1.11 6.825-3.328 7.734-8.027 14.883-13.804 20.999-.724.755.154 1.941 1.078 1.48 4.006-1.926 7.888-3.791 12.048-5.808 2.049-1.002 4.175-2.018 6.455-2.158 2.188-.138 4.576.725 5.654 2.589.061.093.108.169.154.262.17.354.309.74.37 1.125.328 1.555-.15 3.25-1.044 4.589z" fill="#ecbf4c"/><path d="m321.185 351.018c-.432 0-.848-.015-1.263-.03-.108 0-.201 0-.308-.016-3.636-19.782-7.78-39.471-12.464-59.037.216-.2.462-.37.74-.416.262-.047.524 0 .77.108 4.714 19.689 8.889 39.486 12.525 59.391z" fill="#e58f31"/><path d="m335.62 292.628c-2.203 11.015-3.743 21.923-4.298 33.201-.401 8.365-.817 16.731-1.217 25.081-.524.031-1.033.047-1.541.062.416-8.874.847-17.748 1.294-26.607.555-11.016 2.157-21.677 4.314-32.415.57.093 1.048.324 1.448.678z" fill="#e58f31"/><path d="m360.918 306.956c-5.439 7.857-10.985 15.668-15.946 23.833-3.805 6.271-6.687 12.88-9.182 19.659-.57.077-1.156.123-1.726.169 2.419-6.671 5.192-13.188 8.843-19.366 5.269-8.905 11.339-17.348 17.224-25.867.371.463.633 1.002.787 1.572z" fill="#e58f31"/><path d="m315.717 350.787c-.601-.015-1.202-.061-1.818-.107-8.566-15.437-19.936-29.134-30.151-43.554.093-.555.324-1.078.801-1.525 10.553 14.959 22.401 29.102 31.168 45.186z" fill="#e58f31"/><path d="m303.73 349.509c-1.233-.185-2.465-.417-3.682-.694-9.521-6.517-19.288-12.68-28.363-19.874.015-.601.185-1.14.539-1.54 10.045 8.041 20.968 14.774 31.506 22.108z" fill="#e58f31"/><path d="m371.795 332.33c-2.28 1.017-4.637 1.942-6.732 3.051-3.867 2.034-7.626 4.268-11.262 6.671-3.158 2.08-6.409 4.222-9.044 6.964-.647.154-1.309.293-1.972.401 2.203-2.619 4.776-4.961 7.934-7.149 3.975-2.743 8.088-5.269 12.341-7.565 2.557-1.387 5.469-2.48 8.212-3.759.061.093.108.169.154.262.169.354.307.739.369 1.124z" fill="#e58f31"/><path d="m202.46 308.801c-.224.267-.586.375-.927.465-3.652.953-7.403 1.354-11.18 1.522-1.375.065-2.755.095-4.13.108-1.293.017-2.587.021-3.876.021-7.446 0-14.887-.013-22.333-.039-1.095-.004-2.194-.009-3.289-.013-.703 0-1.401-.005-2.104-.009-4.398-.017-8.826-.047-13.141-.892-.285-.056 1.367-16.896 1.522-18.548.621-6.644 1.449-13.284 2.932-19.794 1.168-5.122 2.725-10.684 5.23-15.603 2.733-5.368 6.592-9.972 12.305-12.404.211-.091.427-.177.642-.263 4.6-1.789 9.658-2.518 14.529-1.733 1.518.246 2.928.629 4.242 1.134 9.257 3.549 13.671 13.09 15.793 22.808 3.014 13.775 3.566 27.968 4.048 42.002.017.431.017.905-.263 1.238z" fill="#f0c9a1"/><path d="m152.453 229.516c-1.851-2.7-2.305-6.006-2.768-9.155-1.494-10.151 2.759-21.369 13.525-25.262 5.867-2.121 12.691-2.545 18.55-.182 11.216 4.524 13.416 15.818 12.815 26.11-.271 4.637-1.927 9.117-5.216 12.719-2.6 2.848-5.654 4.972-9.71 5.62-9.964 1.592-20.266.257-27.196-9.85z" fill="#363271"/><path d="m180.007 226.134v18.755c0 3.69-2.992 6.683-6.683 6.683s-6.683-2.992-6.683-6.683v-18.755z" fill="#f0c9a1"/><path d="m180.007 229.686v12.938c-2.845.862-5.769 1.483-8.73 1.423-1.526-.03-3.126-.25-4.635-.711v-11.52c.759-.362 1.556-.651 2.35-.892 3.552-1.083 7.307-1.505 11.015-1.238z" fill="#e9b588"/><path d="m155.308 219.882c0 12.025 6.383 21.773 16.383 21.773 10.001 0 18.108-9.748 18.108-21.773s-8.107-21.773-18.108-21.773c-10 .001-16.383 9.749-16.383 21.773z" fill="#f0c9a1"/><path d="m185.197 221.915c-.829 3.474.752 6.828 3.531 7.491s5.705-1.615 6.533-5.09c.829-3.474-.752-6.828-3.531-7.491s-5.704 1.616-6.533 5.09z" fill="#f0c9a1"/><path d="m150.275 224.316c-.829-3.474.752-6.828 3.531-7.491s5.704 1.616 6.533 5.09-.752 6.828-3.531 7.491-5.704-1.615-6.533-5.09z" fill="#f0c9a1"/><path d="m180.144 215.278c-2.958 0-5.441 2.043-6.132 4.789h-3.474c-.69-2.747-3.174-4.789-6.132-4.789-3.49 0-6.329 2.839-6.329 6.329s2.839 6.329 6.329 6.329 6.329-2.839 6.329-6.329c0-.058-.007-.114-.009-.171h3.096c-.001.057-.009.113-.009.171 0 3.49 2.839 6.329 6.329 6.329s6.329-2.839 6.329-6.329c.002-3.49-2.837-6.329-6.327-6.329zm-15.737 11.289c-2.735 0-4.961-2.225-4.961-4.961 0-2.735 2.225-4.961 4.961-4.961 2.735 0 4.961 2.225 4.961 4.961-.001 2.736-2.226 4.961-4.961 4.961zm15.737 0c-2.735 0-4.961-2.225-4.961-4.961 0-2.735 2.225-4.961 4.961-4.961 2.735 0 4.961 2.225 4.961 4.961s-2.226 4.961-4.961 4.961z" fill="#fff"/><path d="m156.949 215.817c7.142-1.592 12.074-8.294 14.53-15.186 3.599 5.998 8.983 10.909 15.286 13.942 1.348.649 3.26 1.077 4.094-.165.305-.454.364-1.026.386-1.573.258-6.371-3.689-12.71-9.521-15.29-1.532-.678-3.165-1.112-4.817-1.391-5.737-.97-11.932.02-16.655 3.418-3.073 2.21-5.414 5.49-6.434 9.141-.885 3.167-1.768 8.196 3.131 7.104z" fill="#363271"/><path d="m156.614 196.391c1.221 2.642 4.207 4.406 7.093 4.032 2.35-.304 4.454-1.872 6.824-1.865 2.168.007 4.098 1.327 6.205 1.84 3.226.785 6.863-.54 8.829-3.215s2.144-6.542.432-9.386-5.213-4.497-8.497-4.012c-2.898.428-5.315 1.836-8.331 1.721-1.976-.075-3.932-.821-5.912-.5-5.116.827-8.916 6.467-6.643 11.385z" fill="#363271"/><path d="m190.354 252.864v57.924c-1.375.065-2.755.095-4.13.108-1.293.017-2.587.021-3.876.021-7.446 0-14.887-.013-22.333-.039-1.095-.004-2.194-.009-3.289-.013v-58.001z" fill="#fff"/><path d="m189.28 278.585c-8.78 3.54-18.52 3.55-27.99 3.44.5-10.31 1.04-20.61 1.63-30.92.25.4.51.88.8 1.46 2.34 4.7 5.27 8.88 8.95 12.64 4.99 5.08 10.81 9.24 16.61 13.38z" fill="#e4e4e4" opacity=".37"/><path d="m163.47 243.615c.05 1.36-.31 3.05-.37 4.21-.06 1.09-.13 2.19-.18 3.28-.59 10.31-1.13 20.61-1.63 30.92-.16 3.28-.31 6.55-.46 9.83-.29 6.33-.56 12.68-.82 19.02-1.79 0-3.59-.01-5.39-.02-4.4-.02-8.83-.05-13.14-.89-.29-.06 1.37-16.9 1.52-18.55.62-6.64 1.45-13.28 2.93-19.79 1.17-5.12 2.73-10.69 5.23-15.6 2.74-5.37 6.59-9.98 12.31-12.41z" fill="#514e92"/><path d="m202.46 308.801c-.224.267-.586.375-.927.465-4.984 1.302-10.149 1.574-15.31 1.63-.254-6.351-.526-12.697-.815-19.043-.668-14.681-1.423-29.352-2.268-44.024-.082-1.427-.604-3.647-.259-5.075 9.257 3.549 13.671 13.09 15.793 22.808 3.014 13.775 3.566 27.968 4.048 42.002.018.43.018.904-.262 1.237z" fill="#514e92"/><path d="m185.194 235.238-1.075-1.329c4.259-3.594 6.702-8.864 6.702-14.459v-3.789c0-8.965-7.142-16.258-15.92-16.258h-5.404c-8.727 0-15.827 7.251-15.827 16.163v3.884h-1.689v-3.884c0-9.863 7.857-17.888 17.515-17.888h5.404c9.709 0 17.608 8.067 17.608 17.983v3.789c.001 6.111-2.665 11.866-7.314 15.788z" fill="#fff"/><path d="m154.376 229.583h-2.631c-1.292 0-2.349-1.057-2.349-2.349v-11.254c0-1.292 1.057-2.349 2.349-2.349h2.631c1.292 0 2.349 1.057 2.349 2.349v11.253c0 1.293-1.057 2.35-2.349 2.35z" fill="#dfa331"/><path d="m193.61 229.583h-2.631c-1.292 0-2.349-1.057-2.349-2.349v-11.254c0-1.292 1.057-2.349 2.349-2.349h2.631c1.292 0 2.349 1.057 2.349 2.349v11.253c0 1.293-1.057 2.35-2.349 2.35z" fill="#dfa331"/><path d="m186.448 234.287c0 1.108-.78 2.108-1.91 2.332l-2.539.5c-1.281.25-2.531-.591-2.785-1.867-.03-.151-.043-.306-.043-.457 0-.384.09-.75.263-1.078.315-.625.905-1.108 1.647-1.255l2.539-.5c1.022-.198 2.022.293 2.514 1.151.129.216.22.457.272.716.029.151.042.307.042.458z" fill="#dfa331"/><path d="m186.133 233.114c-.319.625-.91 1.104-1.647 1.25l-2.539.5c-1.022.203-2.026-.289-2.514-1.147.315-.625.905-1.108 1.647-1.255l2.539-.5c1.023-.198 2.023.294 2.514 1.152z" fill="#ecbf4c" opacity=".41"/><path d="m149.567 226.996h-.774c-.38 0-.691-.311-.691-.691v-9.828c0-.38.311-.691.691-.691h.774c.38 0 .691.311.691.691v9.828c0 .38-.311.691-.691.691z" fill="#ecbf4c"/><path d="m196.13 226.996h-.774c-.38 0-.691-.311-.691-.691v-9.828c0-.38.311-.691.691-.691h.774c.38 0 .691.311.691.691v9.828c0 .38-.311.691-.691.691z" fill="#ecbf4c"/><path d="m144.83 217.955v44.61c0 .38-.1.73-.28 1.03-.35.61-1.02 1.02-1.78 1.02h-63.5999c-1.13 0-2.05-.92-2.05-2.05v-44.61c0-1.14.92-2.06 2.05-2.06h63.5999c1.14 0 2.06.92 2.06 2.06z" fill="#5f5ea5"/><path d="m144.55 263.595c-.35.61-1.02 1.02-1.78 1.02h-63.5999c-1.13 0-2.05-.92-2.05-2.05v-44.61c0-1.14.92-2.06 2.05-2.06h3.94c.28.98.53 1.93.85 2.67 2.69 6.44 6.9 12.18 11.85 17.07 6.6199 6.56 14.5399 11.67 22.6599 16.24 8.31 4.68 16.98 8.89 26.08 11.72z" fill="#fff" opacity=".06"/><path d="m121.582 242.938h-1.612-17.993-1.612l-4.0281 30.391h5.6401 17.993 5.64z" fill="#514e92"/><path d="m116.56 255.228c0 3.085-2.501 5.587-5.587 5.587s-5.587-2.501-5.587-5.587c0-3.085 2.501-5.586 5.587-5.586s5.587 2.501 5.587 5.586z" fill="#5f5ea5"/><path d="m216.441 279.815-.51 5.16-.32 3.16-3.09 31.1-.53 5.29-.66 6.73-1.05 10.58-.73 7.36-.25 2.49h-117.4803l-.99-9.85-1.04-10.58-.67-6.73-.53-5.29-3.08-31.1-.32-3.16-.51-5.16z" fill="#c3b7fc"/><path d="m216.437 279.817-.826 8.318h-130.1004l-.827-8.318z" fill="#a797fb"/><path d="m211.33 331.256-1.049 10.579h-119.4469l-1.048-10.579z" fill="#5f5ea5"/><path d="m212.522 319.234-.529 5.29h-122.8712l-.529-5.29z" fill="#fff"/><path d="m209.551 349.195-.25 2.49h-117.4803l-.99-9.85-1.04-10.58-.67-6.73-.53-5.29-3.08-31.1-.32-3.16-.51-5.16h18.3703c.17.12.35.25.52.39 8.41 6.7 15.26 16.25 23.62 23.33 17.51 14.82 37.2 27.06 58.23 36.21 5.83 2.54 11.76 4.84 17.78 6.89 1.48.51 3.81 1.54 6.35 2.56z" fill="#5f5ea5" opacity=".11"/><path d="m221.603 284.974h-142.0858c-2.062 0-3.733-1.671-3.733-3.733v-4.18c0-2.061 1.671-3.733 3.733-3.733h142.0858c2.062 0 3.733 1.671 3.733 3.733v4.18c0 2.062-1.671 3.733-3.733 3.733z" fill="#dfdbfc"/></svg>