<svg fill="none" height="47" viewBox="0 0 48 47" width="48" xmlns="http://www.w3.org/2000/svg" xmlns:xlink="http://www.w3.org/1999/xlink"><clipPath id="a"><path d="m0-1h48v48h-48z"/></clipPath><g clip-path="url(#a)"><path d="m0 14.5792c0-6.22151 3.83632-11.83107 9.87831-13.31495 10.10789-2.48245 25.36439-4.52749 32.87469 2.98282 6.3395 6.33963 5.8706 18.19853 4.0772 27.82123-1.7098 9.1743-10.2432 14.9317-19.5754 14.9317h-19.7548c-4.14213 0-7.5-3.3579-7.5-7.5z" fill="#fe705a"/><g fill="#fff"><path d="m29.8389 31.8776c.0429-.0214.0858-.2899.1288-.8054.0644-.5369.1289-1.1597.1933-1.8685.0645-.7087.1182-1.4389.1611-2.1907.0429-.7516.0752-1.3744.0966-1.8684 0-.2792 0-.6765 0-1.192.0215-.5155.0323-1.0846.0323-1.7075 0-.6442 0-1.31 0-1.9973.0214-.6873.0214-1.3316 0-1.9329 0-.6228-.0108-1.1705-.0323-1.643 0-.4725 0-.8161 0-1.0309 0-.0859-.0322-.2362-.0966-.4511-.0429-.2147-.0966-.4402-.1611-.6764-.0429-.2363-.0966-.451-.161-.6444-.0645-.2147-.1182-.365-.1611-.451-.7518-.0644-1.5142-.0215-2.2873.1289-.7733.1503-1.5357.3221-2.2874.5155-.7516.1932-1.5034.3543-2.255.4832-.7302.1289-1.4283.1289-2.0941 0-.1718-.3652-.0107-.7303.4832-1.0953.5155-.3867 1.2565-.7196 2.223-.9988.9664-.3006 2.0939-.5369 3.3826-.7087 1.2886-.1933 2.6201-.2792 3.9947-.2577 1.3745.0214 2.7276.1718 4.0591.451 1.3317.2577 2.5236.6872 3.576 1.2887 1.0524.5798 1.9007 1.3423 2.545 2.2873.6444.9449.9665 2.1154.9665 3.5114 0 .494-.086 1.0202-.2578 1.5786-.1717.5584-.3972 1.1168-.6764 1.6752-.2578.5584-.5584 1.0953-.9021 1.6108-.3222.4939-.6443.9128-.9665 1.2564-.1503.1718-.3973.4403-.7409.8053-.3437.3437-.741.741-1.192 1.192-.4296.4511-.8913.9235-1.3853 1.4175-.4939.4725-.9665.9343-1.4175 1.3853-.4295.4295-.8268.8161-1.1919 1.1597-.3437.3437-.6013.6014-.7732.7732-.0644.5155-.1504.988-.2577 1.4175-.1074.4295-.2685.7624-.4832.9987-.2148.2362-.494.3436-.8376.3222-.3222 0-.7303-.1718-1.2242-.5155-.4726.3221-.9773.7732-1.5142 1.3531-.5154.6013-1.0524 1.1705-1.6108 1.7074-.5584.5584-1.1382.9986-1.7396 1.3208s-1.2027.3544-1.804.0967v-1.1276zm2.8027-2.255c1.353-.5584 2.545-1.3746 3.5759-2.4485 1.0524-1.0953 1.8793-2.2873 2.4806-3.5759.6228-1.2886.9987-2.588 1.1275-3.898.1289-1.3316-.0321-2.5021-.4832-3.5115-.451-1.0094-1.2241-1.7827-2.3195-2.3196-1.0738-.5584-2.5342-.7087-4.3813-.451z"/><path d="m10.1751 33.9069c-.0215-.3865-.0537-.9664-.0967-1.7396-.0214-.7947-.0537-1.686-.09662-2.6739-.02143-1.0094-.05369-2.0617-.09662-3.1571-.04294-1.0953-.08596-2.137-.12889-3.1249-.02143-.9879-.04294-1.8685-.06445-2.6417-.02142-.7947-.03218-1.3852-.03218-1.7718 0-.1289-.01075-.3437-.03226-.6444 0-.3221 0-.655 0-.9986 0-.3651 0-.7088 0-1.0309.02151-.3222.03226-.5477.03226-.6765-.25769.1288-.56915.3543-.93425.6765-.34364.3221-.71948.6765-1.12755 1.0631-.40806.3651-.82686.7087-1.2564 1.0309-.40806.3007-.79465.4939-1.15976.5799-.49397-.3007-.71948-.6658-.67653-1.0954.04296-.451.2792-.9235.70874-1.4174.45102-.5155 1.04164-1.0417 1.77186-1.5786.7517-.537 1.56782-1.0524 2.44838-1.5463.90207-.4941 1.82547-.9451 2.77047-1.3531.9451-.4081 1.8364-.741 2.674-.9986.859-.2792 1.6107-.4511 2.255-.5155.6659-.086 1.1598-.043 1.482.1288.6013.6228.8912 1.396.8697 2.3195-.0214.9236-.2255 1.9115-.6121 2.9639-.3865 1.0523-.8912 2.1477-1.5141 3.2859-.6227 1.1383-1.2242 2.2444-1.804 3.3182-.5799 1.0524-1.0739 2.0511-1.4819 2.9961-.4081.9235-.6014 1.7182-.58 2.3839.0216.6658.3329 1.1598.9344 1.482.6013.3221 1.6215.3972 3.0604.2255.7302-.1718 1.4926-.4403 2.2873-.8054.7947-.3866 1.5678-.8054 2.3195-1.2565.7517-.4724 1.4497-.9664 2.094-1.4818.6658-.5155 1.2243-.9987 1.6752-1.4497.7517.1932 1.1706.4724 1.2564.8376.0859.3651-.0644.7731-.451 1.2242-.365.451-.9234.9234-1.6752 1.4175-.7517.4939-1.6.9771-2.545 1.4497-.945.451-1.9329.859-2.9639 1.2241-1.0094.3651-1.9865.6443-2.9315.8376-.9236.1933-1.7612.2792-2.5128.2577-.7302-.0214-1.2672-.204-1.6109-.5476 0 .1289-.0106.3544-.0321.6765-.0216.3222-.0645.6658-.1289 1.031-.0645.3435-.1719.6764-.3222.9986-.1503.3006-.365.5154-.6442.6443-.2363.1074-.4618.0859-.6766-.0645-.1933-.1503-.3436-.3113-.451-.4832zm1.7074-7.0873 5.9276-13.2407c-.1503-.4939-.408-.8376-.7731-1.0309-.3437-.2147-.741-.3114-1.192-.2899-.451 0-.9127.0967-1.3853.2899-.4724.1933-.9128.4296-1.3208.7088-.3865.2577-.7088.5477-.9665.8698-.2576.3007-.3865.5799-.3865.8376z"/></g></g></svg>