<svg id="SvgjsSvg1001" width="288" height="288" xmlns="http://www.w3.org/2000/svg" version="1.1" xmlns:xlink="http://www.w3.org/1999/xlink" xmlns:svgjs="http://svgjs.com/svgjs"><rect id="SvgjsRect1048" width="288" height="288" rx="20" ry="20" transform="matrix(0.8,0,0,0.8,28.799999999999997,28.799999999999997)" fill="#fa8137"></rect><defs id="SvgjsDefs1002"></defs><g id="SvgjsG1008" transform="matrix(0.51,0,0,0.51,70.27374775618314,70.69935459136963)"><svg xmlns="http://www.w3.org/2000/svg" fill-rule="evenodd" clip-rule="evenodd" image-rendering="optimizeQuality" shape-rendering="geometricPrecision" text-rendering="geometricPrecision" viewBox="0 0 493 373" width="288" height="288"><path fill="#ffffff" d="m329.5 4.5c-52.832-1.16509-105.832-1.33176-159-.5.667.33333 1.333.66667 2 1-.752.67076-1.086 1.5041-1 2.5-1.101-1.34839-2.101-2.84839-3-4.5.333-.33333.667-.66667 1-1 53.333-.66667 106.667-.66667 160 0 1.274.97722 1.274 1.81056 0 2.5z" opacity=".728" class="colora5a5a0 svgShape"></path><path fill="#ffffff" d="m489.5 2.5c-49.379-.0345-98.712.63216-148 2 .558-1.28991 1.558-2.12325 3-2.5 48.502-.83161 96.835-.66494 145 .5z" opacity=".91" class="color9c9d96 svgShape"></path><path fill="#ffffff" d="m206.5 70.5c14.489 24.3019 28.489 48.969 42 74-.548 1.894-1.548 3.56-3 5 .746 1.236 1.079 2.57 1 4-2.176 5.028-4.843 9.694-8 14-1.266.59-2.599 1.09-4 1.5.457.414.791.914 1 1.5-2.592 1.304-4.425 3.304-5.5 6-.595 1.399-.428 2.732.5 4-1.667.667-3.333 1.333-5 2 1.493.641 2.493 1.641 3 3-2.164 5-4.831 9.667-8 14-1.373-.157-2.707.01-4 .5 1.017 1.049 1.184 2.216.5 3.5-.333-.333-.667-.667-1-1-.494 1.634-.66 3.301-.5 5-.971 1.983-1.971 3.983-3 6-1.663 1.938-2.329 4.272-2 7 .167 48.668 0 97.334-.5 146-28.434 1.328-56.934 1.328-85.5 0-.829-49.626-1.329-99.292-1.5-149-24.0978-41.197-47.9311-82.531-71.5-124-.3916-2.6457-.3916-5.1457 0-7.5-1.7809-2.2337-3.7809-4.067-6-5.5 2.7487-2.8967 2.582-5.5634-.5-8-.6667 1.3333-1.3333 2.6667-2 4-.3826-.556-.8826-.8893-1.5-1-2.8346-3.6638-5.168-7.6638-7-12-.0858-.9959.2476-1.8292 1-2.5-2.3872-.9761-3.5539-2.8094-3.5-5.5-1.3997-1.248-2.8997-2.248-4.5-3-9.5998-15.537-18.93312-31.2037-28-47 0-1 0-2 0-3 14.2605-.65861 28.5939-.99194 43-1 14.7565-.15122 29.4231.34878 44 1.5 20.799 35.0938 40.966 70.5938 60.5 106.5 6.764 9.196 12.764 18.863 18 29 14.086-22.57 27.919-45.2362 41.5-68z" class="color86837c svgShape"></path><path fill="#ffffff" d="m489.5 2.5v80c-62.667 0-125.333 0-188 0 0-1.3333 0-2.6667 0-4 2.428-5.1935 5.095-10.1935 8-15 1.406-.4731 2.073-1.4731 2-3 1.159-3.6513 2.826-6.9846 5-10 1.406-.4731 2.073-1.4731 2-3 4.556-10.7802 9.89-21.1135 16-31 1.406-.4731 2.073-1.4731 2-3-.172-.9916.162-1.6583 1-2 2.593-1.50793 3.926-3.84126 4-7 49.288-1.36784 98.621-2.0345 148-2z" class="color4c4d3f svgShape"></path><path fill="#ffffff" d="m329.5 4.5c-5.318 12.6404-11.651 24.6404-19 36-1.221.5283-2.387 1.195-3.5 2-.333-.3333-.667-.6667-1-1-.613 1.9952-.113 3.6619 1.5 5-3.306.5867-4.306 2.2534-3 5-6.608 12.5951-13.608 24.9284-21 37-3.194-.3244-4.194.8422-3 3.5-.667.3333-1.333.6667-2 1 .752.6708 1.086 1.5041 1 2.5-5.164 10.333-10.831 20.333-17 30-2.259.844-3.259 2.511-3 5 .172.992-.162 1.658-1 2-2.259.844-3.259 2.511-3 5-1.084 2.504-2.417 4.837-4 7-1 1.333-2 1.333-3 0-13.511-25.031-27.511-49.6981-42-74-10.888-21.4437-22.555-42.4437-35-63-.086-.9959.248-1.82924 1-2.5-.667-.33333-1.333-.66667-2-1 53.168-.83176 106.168-.66509 159 .5z" class="color4e4f41 svgShape"></path><path fill="#ffffff" d="m341.5 4.5c-.074 3.15874-1.407 5.49207-4 7 .579-2.83105 1.912-5.16439 4-7z" class="color898a82 svgShape"></path><path fill="#ffffff" d="m336.5 13.5c.073 1.5269-.594 2.5269-2 3-.073-1.5269.594-2.5269 2-3z" opacity=".373" class="colorb9b9b3 svgShape"></path><path fill="#ffffff" d="m489.5 2.5c.68 26.0268 1.346 52.1935 2 78.5-.139 1.301-.805 2.1344-2 2.5 0-.3333 0-.6667 0-1 0-26.6667 0-53.3333 0-80z" opacity=".208" class="colord9d9d0 svgShape"></path><path fill="#ffffff" d="m310.5 40.5c-.492 2.3185-1.492 4.3185-3 6-1.613-1.3381-2.113-3.0048-1.5-5 .333.3333.667.6667 1 1 1.113-.805 2.279-1.4717 3.5-2z" class="color777770 svgShape"></path><path fill="#ffffff" d="m307.5 46.5c-.61 1.9341-1.61 3.6007-3 5-1.306-2.7466-.306-4.4133 3-5z" opacity=".99" class="color95968f svgShape"></path><path fill="#ffffff" d="m318.5 47.5c.073 1.5269-.594 2.5269-2 3-.073-1.5269.594-2.5269 2-3z" opacity=".357" class="colorb8b8b1 svgShape"></path><path fill="#ffffff" d="m27.5 52.5c1.6003.752 3.1003 1.752 4.5 3-.0539 2.6906 1.1128 4.5239 3.5 5.5-.7524.6708-1.0858 1.5041-1 2.5-2.5692-3.461-4.9026-7.1277-7-11z" class="colorb0aea8 svgShape"></path><path fill="#ffffff" d="m311.5 60.5c.073 1.5269-.594 2.5269-2 3-.073-1.5269.594-2.5269 2-3z" opacity=".286" class="colorc1c1bb svgShape"></path><path fill="#ffffff" d="m51.5 93.5c-3.837-5.6698-7.1704-11.6698-10-18 .6174.1107 1.1174.444 1.5 1 .6667-1.3333 1.3333-2.6667 2-4 3.082 2.4366 3.2487 5.1033.5 8 2.2191 1.433 4.2191 3.2663 6 5.5-.3916 2.3543-.3916 4.8543 0 7.5z" class="color999993 svgShape"></path><path fill="#ffffff" d="m301.5 78.5v4h188v1c-63.164.9991-126.498 1.3324-190 1 .095-2.2857.762-4.2857 2-6z" opacity=".914" class="color8d8d87 svgShape"></path><path fill="#ffffff" d="m283.5 88.5c-1.084 2.5041-2.417 4.8374-4 7 .086-.9959-.248-1.8292-1-2.5.667-.3333 1.333-.6667 2-1-1.194-2.6578-.194-3.8244 3-3.5z" class="color7f7f75 svgShape"></path><path fill="#ffffff" d="m262.5 125.5c-.61 1.934-1.61 3.601-3 5-.259-2.489.741-4.156 3-5z" opacity=".992" class="color97978e svgShape"></path><path fill="#ffffff" d="m258.5 132.5c-.61 1.934-1.61 3.601-3 5-.259-2.489.741-4.156 3-5z" opacity=".992" class="color999995 svgShape"></path><path fill="#ffffff" d="m248.5 144.5c1 1.333 2 1.333 3 0-1.417 3.169-3.083 6.169-5 9 .079-1.43-.254-2.764-1-4 1.452-1.44 2.452-3.106 3-5z" class="coloraeaea9 svgShape"></path><path fill="#ffffff" d="m424.5 158.5c-.08 3.281.587 6.281 2 9 1.268 2.405 1.935 5.072 2 8-.206 2.995.46 5.662 2 8 1.443 4.115 2.443 8.448 3 13-.08 3.281.587 6.281 2 9 2.093 5.378 3.427 11.045 4 17v3c-66 0-132 0-198 0 0-12.333 0-24.667 0-37-.299-5.718 1.367-10.718 5-15 1.406-.473 2.073-1.473 2-3 3.14-6.28 6.307-12.614 9.5-19 1.491-1.504 3.324-2.337 5.5-2.5 50.667-.667 101.333-.667 152 0 6.241-.07 9.241 3.096 9 9.5z" class="color4e4f41 svgShape"></path><path fill="#ffffff" d="m424.5 158.5c1.413 2.719 2.08 5.719 2 9-1.413-2.719-2.08-5.719-2-9z" opacity=".808" class="colora8a7a0 svgShape"></path><path fill="#ffffff" d="m248.5 170.5c.073 1.527-.594 2.527-2 3-.073-1.527.594-2.527 2-3z" opacity=".404" class="colorb7b7b1 svgShape"></path><path fill="#ffffff" d="m238.5 167.5c-2.83 6.33-6.163 12.33-10 18-.507-1.359-1.507-2.359-3-3 1.667-.667 3.333-1.333 5-2-.928-1.268-1.095-2.601-.5-4 1.075-2.696 2.908-4.696 5.5-6-.209-.586-.543-1.086-1-1.5 1.401-.41 2.734-.91 4-1.5z" class="colora2a19b svgShape"></path><path fill="#ffffff" d="m428.5 175.5c1.268 2.405 1.935 5.072 2 8-1.54-2.338-2.206-5.005-2-8z" opacity=".502" class="colorb7b7b0 svgShape"></path><path fill="#ffffff" d="m433.5 196.5c1.413 2.719 2.08 5.719 2 9-1.413-2.719-2.08-5.719-2-9z" opacity=".788" class="coloraaaba4 svgShape"></path><path fill="#ffffff" d="m220.5 199.5c-1.169 3.011-2.836 5.678-5 8-.16-1.699.006-3.366.5-5l1 1c.684-1.284.517-2.451-.5-3.5 1.293-.49 2.627-.657 4-.5z" class="colorb2b2ad svgShape"></path><path fill="#ffffff" d="m212.5 213.5c-.221 2.567-.888 4.901-2 7-.329-2.728.337-5.062 2-7z" opacity=".518" class="colorcdccc8 svgShape"></path><path fill="#ffffff" d="m241.5 188.5v37h198c0-1 0-2 0-3 .934 1.068 1.268 2.401 1 4-66.667 0-133.333 0-200 0-.329-12.844.005-25.511 1-38z" opacity=".522" class="colora5a59c svgShape"></path><path fill="#ffffff" d="m311.5 243.5c-22.978-.948-45.978-1.281-69-1v130c-.333 0-.667 0-1 0 0-43.667 0-87.333 0-131 21.652-1.086 43.318-1.253 65-.5 2.153.099 3.819.933 5 2.5z" opacity=".785" class="color9a9a94 svgShape"></path><path fill="#ffffff" d="m311.5 243.5c1.762.762 2.762 2.096 3 4-1.762-.762-2.762-2.096-3-4z" opacity=".847" class="colora8a8a2 svgShape"></path><path fill="#ffffff" d="m311.5 243.5c.238 1.904 1.238 3.238 3 4-.073 1.527.594 2.527 2 3 .238 1.904 1.238 3.238 3 4-.073 1.527.594 2.527 2 3 2.353 2.36 4.353 5.027 6 8-.073 1.527.594 2.527 2 3-.073 1.527.594 2.527 2 3 4.331 4.652 7.665 9.986 10 16 0 2 1 3 3 3 .992-.172 1.658.162 2 1 47.497.999 95.164 1.332 143 1v80c-82.333 0-164.667 0-247 0 0-43.333 0-86.667 0-130 23.022-.281 46.022.052 69 1z" class="color4c4d3f svgShape"></path><path fill="#ffffff" d="m314.5 247.5c1.406.473 2.073 1.473 2 3-1.406-.473-2.073-1.473-2-3z" opacity=".502" class="colorb0afaa svgShape"></path><path fill="#ffffff" d="m316.5 250.5c1.762.762 2.762 2.096 3 4-1.762-.762-2.762-2.096-3-4z" opacity=".643" class="colora9aba5 svgShape"></path><path fill="#ffffff" d="m319.5 254.5c1.406.473 2.073 1.473 2 3-1.406-.473-2.073-1.473-2-3z" opacity=".482" class="colorb9b9a9 svgShape"></path><path fill="#ffffff" d="m327.5 265.5c1.406.473 2.073 1.473 2 3-1.406-.473-2.073-1.473-2-3z" opacity=".341" class="colorc2c4bc svgShape"></path><path fill="#ffffff" d="m329.5 268.5c1.406.473 2.073 1.473 2 3-1.406-.473-2.073-1.473-2-3z" opacity=".478" class="colorb0b3ab svgShape"></path><path fill="#ffffff" d="m341.5 287.5c1.333.667 2.333 1.667 3 3-2 0-3-1-3-3z" opacity=".557" class="colorcbccc9 svgShape"></path><path fill="#ffffff" d="m490.5 372.5c-.333 0-.667 0-1 0 0-26.667 0-53.333 0-80-47.836.332-95.503-.001-143-1 47.777-.812 95.443-.978 143-.5.995 27.093 1.328 54.259 1 81.5z" opacity=".787" class="colora5a69e svgShape"></path></svg></g></svg>