<svg fill="none" height="80" viewBox="0 0 80 80" width="80" xmlns="http://www.w3.org/2000/svg"><path clip-rule="evenodd" d="m28.8909 31.389c-4.7559 0-8.6111 3.8547-8.6111 8.6104 0 4.756 3.8554 8.6114 8.6111 8.6114h8.6111v-8.4377c-.0007-.0577-.001-.1157-.001-.1737 0-.0577.0003-.1157.001-.1733v-8.4371zm8.6111-5h-8.6111c-4.7557 0-8.6111-3.8554-8.6111-8.6112 0-4.7557 3.8554-8.61105 8.6111-8.61105h8.6111zm5-17.22225v17.22205l8.609-.0004c4.7556 0 8.6123-3.8549 8.6123-8.6106s-3.8553-8.61105-8.6113-8.61105zm8.6093 22.22165c-4.7093.0005-8.5357 3.7813-8.6093 8.473v.276c.0736 4.6923 3.9003 8.4734 8.61 8.4734 4.756 0 8.6113-3.8554 8.6113-8.6114 0-4.7557-3.8563-8.6109-8.612-8.611zm-22.2204 22.2224c-4.7556 0-8.6116 3.8559-8.6116 8.6119s3.8553 8.6114 8.6111 8.6114c4.7559 0 8.6112-3.8554 8.6112-8.6114l.0004-8.6119z" fill="#fe705a" fill-rule="evenodd"/></svg>