<svg fill="none" height="80" viewBox="0 0 80 80" width="80" xmlns="http://www.w3.org/2000/svg"><g fill="#fe705a"><path d="m33.3333 56.6667h-3.3333v-25l17.394 26.091c1.5627 2.344 4.4307 3.453 7.164 2.7696l.8463-.2116c.742-.1857 1.2624-.8524 1.2624-1.617v-35.3654s3.3333 0 3.3333-3.3333h-10c-3.3333 0-3.3333 3.3333-3.3333 3.3333h3.3333v20l-16.168-22.6354c-.313-.438-.8178-.6979-1.3561-.6979h-9.1426c-3.3333 0-3.3333 3.3333-3.3333 3.3333h3.3333v33.3334s-3.3333 0-3.3333 3.3333h10c3.3333 0 3.3333-3.3333 3.3333-3.3333z"/><path clip-rule="evenodd" d="m3.33398 13.3333c0-5.52288 4.47717-10.00005 10.00002-10.00005h53.3333c5.523 0 10 4.47717 10 10.00005v53.3333c0 5.523-4.477 10-10 10h-53.3333c-5.52285 0-10.00002-4.477-10.00002-10zm10.00002-3.33338h53.3333c1.841 0 3.3333 1.49238 3.3333 3.33338v53.3333c0 1.841-1.4923 3.3333-3.3333 3.3333h-53.3333c-1.8409 0-3.3333-1.4923-3.3333-3.3333v-53.3333c0-1.841 1.4924-3.33338 3.3333-3.33338z" fill-rule="evenodd"/></g></svg>