<svg fill="none" height="505" viewBox="0 0 505 505" width="505" xmlns="http://www.w3.org/2000/svg"><path d="m414.573 43.0779c40.71 28.7559 70.375 73.3121 82.998 121.0281 12.308 48.031 7.89 99.223-2.84 153.259-11.045 54.036-28.718 110.6-66.904 144.728-38.185 34.444-97.515 46.452-153.373 42.028-55.859-4.424-108.561-25.596-148.64-59.092-40.3951-33.812-68.1664-80.264-91.8352-132.72s-43.23502-111.232-29.34933-160.843c13.57013-49.928 60.27653-90.6922 110.13853-116.6041 50.178-25.59598 103.196-36.02395 155.583-34.759956 52.387 1.263996 103.827 14.219956 144.222 42.975956z" fill="#ffeddf"/></svg>