<svg fill="none" height="81" viewBox="0 0 81 81" width="81" xmlns="http://www.w3.org/2000/svg"><path d="m73.0253 13.0751-14.415-6.94004c-.814-.3925-1.73-.52203-2.621-.37062-.891.1514-1.7128.57624-2.3515 1.21562l-47.18748 43.02004c-.57253.5195-.91524 1.2451-.95274 2.0173-.03751.7722.23326 1.5276.75274 2.1002.0625.0675.125.1325.1925.1925l3.85248 3.5c.5034.4581 1.1514.7255 1.8314.7556.68.0302 1.3491-.1788 1.8911-.5906l56.8375-43.1c.4293-.3258.9411-.5253 1.4776-.576s1.0765.0493 1.5593.2889c.4827.2395.889.6091 1.1731 1.067.2842.458.4348.9861.435 1.5251v-.1675c0-.8228-.2323-1.6288-.6702-2.3254-.4378-.6965-1.0634-1.2554-1.8048-1.6121z" fill="#ff644d"/><path d="m73.0253 67.9249-14.415 6.9425c-.8143.3914-1.73.5203-2.6207.3689-.8907-.1513-1.7125-.5755-2.3518-1.2139l-47.18748-43.0225c-.57253-.5195-.91524-1.2452-.95274-2.0174-.03751-.7721.23326-1.5276.75274-2.1001.0625-.0675.125-.1325.1925-.1925l3.85248-3.5c.5039-.4601 1.1534-.7287 1.8351-.7588.6817-.0302 1.3523.18 1.8949.5938l56.83 43.1c.4293.3257.9411.5252 1.4776.5759.5365.0508 1.0765-.0493 1.5593-.2889.4827-.2395.889-.6091 1.1731-1.067.2842-.4579.4348-.9861.435-1.525v.18c-.0027.8205-.2362 1.6238-.6739 2.3179s-1.0618 1.251-1.8011 1.6071z" fill="#ff644d"/><path d="m58.6095 74.8675c-.8143.3914-1.7301.5203-2.6208.3689-.8907-.1513-1.7124-.5755-2.3517-1.2139.359.3543.8146.5948 1.3097.6913s1.0076.0448 1.4735-.1488c.4658-.1935.8641-.5202 1.145-.9391.281-.419.432-.9115.4343-1.4159v-63.42003c.0004-.50678-.1496-1.00228-.4311-1.42373-.2814-.42146-.6816-.7499-1.1498-.94374-.4682-.19383-.9835-.24432-1.4805-.14508-.4969.09924-.9533.34375-1.3111.70255.6388-.63914 1.4604-1.06401 2.3512-1.21584s1.8068-.02311 2.6213.36834l14.4125 6.93003c.7437.355 1.3718.913 1.812 1.6097.4401.6967.6743 1.5037.6755 2.3278v47c.0001.8234-.2323 1.6301-.6706 2.3272-.4384.6971-1.0647 1.2562-1.8069 1.6128z" fill="#fe705a"/></svg>