<svg fill="none" height="80" viewBox="0 0 80 80" width="80" xmlns="http://www.w3.org/2000/svg" xmlns:xlink="http://www.w3.org/1999/xlink"><clipPath id="a"><path d="m0 0h80v80h-80z"/></clipPath><g clip-path="url(#a)"><path clip-rule="evenodd" d="m75.1 20.8086c.172 1.276.268 2.6393.268 4.1113 0 7.032-.652 7.4283-15.26 49.6563 11.892-6.936 19.892-19.8202 19.892-34.5762 0-6.956-1.776-13.4954-4.9-19.1914zm-34.396 22.6914-12.004 34.8711c8.1 2.384 16.684 2.1412 24.584-.6348-.108-.172-.204-.3567-.284-.5527zm26.3-5.5195c0-4.944-1.776-8.3692-3.3-11.0332-2.024-3.296-3.928-6.0829-3.928-9.3789 0-3.676 2.792-7.0996 6.72-7.0996.176 0 .344.0232.516.0312-7.116-6.52-16.596-10.5-27.012-10.5-13.972 0-26.268 7.16734-33.41998 18.0273 2.548.08 5.96798.113 13.23598-.455 2.156-.128 2.408 3.039.256 3.291 0 0-2.168.2567-4.58.3847l14.568 43.3282 8.752-26.2559-6.232-17.0762c-2.152-.124-4.192-.3808-4.192-.3808-2.156-.128-1.904-3.4229.252-3.2949 8.268.636 12.5.684 21.196 0 2.156-.128 2.412 3.0389.256 3.2949 0 0-2.172.2568-4.58.3808l14.456 43c5.708-19.072 7.036-22.2636 7.036-26.2636zm-67.004 2.0195c0 15.832 9.20001 29.516 22.544 36l-19.08001-52.2793c-2.22 4.976-3.46399 10.4793-3.46399 16.2793z" fill="#fe705a" fill-rule="evenodd"/></g></svg>